<svg width="512" height="512" viewBox="0 0 512 512" fill="none" xmlns="http://www.w3.org/2000/svg">
  <rect width="512" height="512" rx="120" fill="#F4EEE3"/>
  <circle cx="256" cy="256" r="176" fill="#0F766E"/>
  <circle cx="256" cy="256" r="132" fill="#F9F7F2"/>
  <path d="M164 188C164 170.327 178.327 156 196 156H316C333.673 156 348 170.327 348 188V324C348 341.673 333.673 356 316 356H196C178.327 356 164 341.673 164 324V188Z" fill="#1F2937"/>
  <path d="M192 204C192 197.373 197.373 192 204 192H308C314.627 192 320 197.373 320 204V220C320 226.627 314.627 232 308 232H204C197.373 232 192 226.627 192 220V204Z" fill="#0F766E"/>
  <path d="M194 274C194 267.373 199.373 262 206 262H248C254.627 262 260 267.373 260 274V306C260 312.627 254.627 318 248 318H206C199.373 318 194 312.627 194 306V274Z" fill="#F59E0B"/>
  <path d="M276 274C276 267.373 281.373 262 288 262H306C312.627 262 318 267.373 318 274V306C318 312.627 312.627 318 306 318H288C281.373 318 276 312.627 276 306V274Z" fill="#E5E7EB"/>
  <circle cx="226" cy="212" r="8" fill="#F9F7F2"/>
  <circle cx="254" cy="212" r="8" fill="#F9F7F2"/>
  <circle cx="282" cy="212" r="8" fill="#F9F7F2"/>
  <path d="M112 100L152 76L168 120L128 144L112 100Z" fill="#F59E0B"/>
  <path d="M368 392L408 368L424 412L384 436L368 392Z" fill="#0F766E" opacity="0.2"/>
</svg>
